Coordinates
version=1
nRows=16
nColumns=33
inDegrees=yes

Units are S.I. units (second, meters, Newtons, ...)
Angles are in degrees.

endheader
time	ground_thorax_rot_x	ground_thorax_rot_y	ground_thorax_rot_z	ground_thorax_tx	ground_thorax_ty	ground_thorax_tz	clav_prot_r	clav_elev_r	scapula_abduction_r	scapula_elevation_r	scapula_upward_rot_r	scapula_winging_r	shoulder_elv_r	plane_of_elev_r	axial_rot_r	elbow_flexion_r	pro_sup_r	wrist_flex_r	wrist_dev_r	clav_prot_l	clav_elev_l	scapula_abduction_l	scapula_elevation_l	scapula_upward_rot_l	scapula_winging_l	shoulder_elv_l	plane_of_elev_l	axial_rot_l	elbow_flexion_l	pro_sup_l	wrist_flex_l	wrist_dev_l
     10.98000000	    -17.80827464	    -34.07279647	     56.51059025	     93.17012802	    770.29862184	    -39.24274116	     28.73783497	    -45.00000000	     39.69643787	    -45.00000000	    -45.00000000	  -3700.10563523	  -2627.74260429	    161.09238289	     41.99071132	   1789.68270636	    -28.24211345	     16.95144280	      0.44927475	     -1.21282324	     29.25071532	    -25.32187979	    -44.90774603	    -45.00000000	  -4961.98525342	   -645.76436601	     26.54712844	     52.59158876	   1070.00837744	     45.24556852	     12.26626665	    -14.25944483
     10.99000000	    -17.86798810	    -33.90811472	     56.47879005	     93.14372407	    769.86740767	    -38.91773863	     28.25983128	    -45.00000000	     39.62499418	    -45.00000000	    -45.00000000	  -3700.43716267	  -2627.67249216	    160.90660560	     42.16685320	   1789.68757921	    -28.10484279	     16.95800076	      0.56932826	     -1.31598118	     28.95976446	    -25.24545843	    -44.83445465	    -45.00000000	  -4962.06096935	   -645.62309779	     26.50491674	     52.15788411	   1069.87846793	     45.16386950	     12.02143308	    -14.65090887
     11.00000000	    -18.04846443	    -33.75225925	     56.20830912	     92.89142263	    769.46100005	    -38.59647583	     28.55476694	    -45.00000000	     39.64371883	    -45.00000000	    -45.00000000	  -3700.29481948	  -2627.50495447	    161.00488059	     42.49769116	   1789.70776002	    -27.88654627	     16.76140053	      0.40944148	     -1.26737855	     29.21028207	    -25.41700000	    -44.73858430	    -45.00000000	  -4961.75933242	   -645.73972781	     26.59088092	     52.15864044	   1070.05487897	     45.13822212	     12.31620647	    -14.32502893
     11.01000000	    -18.19357920	    -33.57193116	     56.03314316	     92.43111495	    769.07569694	    -38.28380136	     28.31396533	    -45.00000000	     39.63032316	    -45.00000000	    -45.00000000	  -3700.52877536	  -2627.51730745	    160.84646275	     42.50929674	   1789.71509633	    -27.31947150	     16.83930253	      0.61015514	     -1.29055441	     28.79421059	    -25.38904320	    -44.73726596	    -45.00000000	  -4961.93252212	   -645.60149163	     26.47174740	     51.94116655	   1069.85509385	     44.92698043	     11.87545657	    -14.94600996
     11.02000000	    -18.40957187	    -33.40474527	     55.75536627	     91.77982590	    768.71263184	    -37.96555395	     28.46914332	    -45.00000000	     39.62409267	    -45.00000000	    -45.00000000	  -3700.40515610	  -2627.31587612	    160.99332604	     42.78813971	   1789.71874983	    -26.69894587	     16.54454905	      0.23102416	     -1.32085446	     29.14031162	    -25.61591935	    -44.65543206	    -45.00000000	  -4961.49696827	   -645.73614543	     26.63510326	     52.07552166	   1070.04346767	     44.85903338	     12.50119973	    -14.25490265
     11.03000000	    -18.54299930	    -33.40678226	     55.60481201	     90.96108728	    768.36925987	    -37.66461181	     28.35833134	    -45.00000000	     39.66305803	    -45.00000000	    -45.00000000	  -3700.35879405	  -2627.42424663	    160.96120401	     43.02931122	   1789.87399898	    -25.48596607	     16.65963395	      0.35784257	     -1.18161404	     28.95890759	    -25.41845834	    -45.00000000	    -45.00000000	  -4961.86530430	   -645.78521386	     26.41869729	     51.89964211	   1070.04244445	     44.48838951	     12.00884424	    -14.85423984
     11.04000000	    -18.76704951	    -33.27803889	     55.37438175	     89.98334826	    768.04859946	    -37.37294944	     28.44118248	    -45.00000000	     39.62568381	    -45.00000000	    -45.00000000	  -3700.44374040	  -2627.33868494	    160.97054622	     43.54969483	   1789.76246176	    -24.05744978	     16.43203204	      0.24097973	     -1.25751089	     29.08286422	    -25.42809650	    -45.00000000	    -45.00000000	  -4961.69190825	   -645.74471996	     26.50434111	     51.88376767	   1070.13357924	     44.20213602	     12.14043061	    -14.67939182
     11.05000000	    -18.97606874	    -33.09524630	     55.06797271	     88.86429081	    767.75385753	    -37.09960391	     28.41379193	    -45.00000000	     39.64803756	    -45.00000000	    -45.00000000	  -3700.45521713	  -2627.23098961	    160.95600691	     43.91705244	   1789.74591349	    -22.19487383	     16.29211865	      0.11621467	     -1.21017833	     28.98254669	    -25.46576041	    -45.00000000	    -45.00000000	  -4961.64413535	   -645.72694325	     26.49009062	     51.73775744	   1070.10544273	     43.86893896	     12.11343998	    -14.76041203
     11.06000000	    -19.17595082	    -32.93490785	     54.81787717	     87.59263013	    767.48797753	    -36.83905454	     28.42765825	    -45.00000000	     39.59381821	    -45.00000000	    -45.00000000	  -3700.49371428	  -2627.09912231	    161.05671423	     44.45738720	   1789.55729988	    -19.85668891	     16.03249252	     -0.06484762	     -1.14882835	     29.23617373	    -25.38612025	    -45.00000000	    -45.00000000	  -4961.70594410	   -645.59789534	     26.48723197	     51.58031938	   1070.11515471	     43.53861600	     12.13493462	    -14.69529721
     11.07000000	    -18.82181954	    -33.05574161	     55.33453622	     86.18789332	    767.25276832	    -36.59800945	     29.25410866	    -45.00000000	     39.89831229	    -45.00000000	    -45.00000000	  -3700.89571537	  -2627.60748373	    161.51794582	     44.01662251	   1801.41901478	    164.39903211	     10.90353320	     12.68663455	     -1.42581508	     29.62589649	    -25.25411143	    -45.00000000	    -45.00000000	  -4961.38365129	   -645.65690781	     26.37301658	     50.69488092	   1069.75556252	     40.15111886	     12.59313499	    -14.39473870
     11.08000000	    -19.49873957	    -32.68649945	     54.47128831	     84.65493594	    767.04328052	    -36.37618875	     28.33488916	    -45.00000000	     39.58622816	    -45.00000000	    -45.00000000	  -3700.70639082	  -2627.47675838	    161.45373182	     44.03779675	   1801.42704765	    164.66766869	     11.07273546	     12.50845500	     -1.15021111	     29.38972045	    -25.53987936	    -45.00000000	    -45.00000000	  -4961.45558075	   -645.50961556	     26.38034503	     51.00510697	   1069.88804215	     41.11678749	     12.33682538	    -14.41153391
     11.09000000	    -19.79947270	    -32.50442484	     54.03138205	     83.01926885	    766.85262768	    -36.18187777	     28.46867171	    -45.00000000	     39.60247409	    -45.00000000	    -45.00000000	  -3700.69012868	  -2627.39425650	    161.42131888	     44.01818017	   1801.47704114	    164.97409981	     11.12611194	     12.44407731	     -1.11550832	     29.36705113	    -25.64022629	    -45.00000000	    -45.00000000	  -4961.34199606	   -645.46693538	     26.39982268	     50.96851773	   1069.96251892	     41.63217331	     12.31364481	    -14.49564537
     11.10000000	    -19.94837189	    -32.41527309	     53.88881512	     81.27558676	    766.67255500	    -36.01546137	     28.47034372	    -45.00000000	     39.63329100	    -45.00000000	    -45.00000000	  -3700.80145972	  -2627.24092954	    161.45684452	     44.19140581	   1801.42931236	    165.37217391	     11.21727389	     12.40653165	     -1.09397188	     29.55450844	    -25.75562853	    -45.00000000	    -45.00000000	  -4961.19974549	   -645.34657507	     26.23944075	     50.83401420	   1069.95860966	     41.93400317	     12.37696783	    -14.58987674
     11.11000000	    -20.30372785	    -32.19849104	     53.40938898	     79.44054718	    766.49342906	    -35.88515146	     28.42537357	    -45.00000000	     39.57303448	    -45.00000000	    -45.00000000	  -3700.79749839	  -2627.12032739	    161.40114603	     44.36685536	   1801.46097670	    165.75070398	     11.29291302	     12.35841229	     -1.05485883	     29.48904585	    -25.83276719	    -45.00000000	    -45.00000000	  -4961.08605541	   -645.31324425	     26.30219802	     50.56288837	   1070.05531137	     42.09098191	     12.32122840	    -14.59826481
     11.12000000	    -20.50011103	    -32.05156715	     53.15793872	     77.50125152	    766.30922142	    -35.78957856	     28.38859856	    -45.00000000	     39.57978911	    -45.00000000	    -45.00000000	  -3700.89778944	  -2626.98674570	    161.41482433	     44.54424255	   1801.45523586	    166.19569999	     11.38425788	     12.32246959	     -1.02097779	     29.56953970	    -25.92582527	    -45.00000000	    -45.00000000	  -4960.96987878	   -645.25782834	     26.22640366	     50.30312247	   1070.06198958	     42.20313930	     12.34098221	    -14.63430720
     11.13000000	    -20.66593496	    -31.95822915	     52.93057762	     75.44961287	    766.11692564	    -35.72809048	     28.44461539	    -45.00000000	     39.60633786	    -45.00000000	    -45.00000000	  -3700.99835569	  -2626.84949831	    161.41457739	     44.78035373	   1801.44409275	    166.65114173	     11.46607696	     12.29376508	     -1.03099361	     29.71459469	    -26.00357542	    -45.00000000	    -45.00000000	  -4960.79999698	   -645.19145393	     26.12663099	     50.05056988	   1070.05196356	     42.29727613	     12.39350586	    -14.69795027
